<svg xmlns="http://www.w3.org/2000/svg" version="1.1" xmlns:xlink="http://www.w3.org/1999/xlink" xmlns:svgjs="http://svgjs.dev/svgjs" width="1000" height="1000" viewBox="0 0 1000 1000"><rect width="1000" height="1000" fill="#000000"></rect><g transform="matrix(0.7,0,0,0.7,150.0000000000001,106.25)"><svg viewBox="0 0 320 360" data-background-color="#35185a" preserveAspectRatio="xMidYMid meet" height="1125" width="1000" xmlns="http://www.w3.org/2000/svg" xmlns:xlink="http://www.w3.org/1999/xlink"><g id="tight-bounds" transform="matrix(1,0,0,1,0,0)"><svg viewBox="0 0 320 360" height="360" width="320"><rect width="320" height="360" fill="#ffffff" mask="url(&quot;#dd83c23e-1a73-479a-a891-f3d7fb86fa21&quot;)" data-fill-palette-color="tertiary"></rect><rect width="320" height="360" fill="#ffffff" mask="url(&quot;#f00cc2df-b015-4e9e-9b78-61f10a2282fc&quot;)" data-fill-palette-color="primary"></rect><g><svg></svg></g><g><svg viewBox="0 0 320 360" height="360" width="320"><g><path xmlns="http://www.w3.org/2000/svg" d="M20.961 227.22l3.726 4.658-1.863-6.056c-0.466-2.795-3.726 0.466-1.863 1.398M25.153 224.425c1.397 2.329 2.795 4.658 2.795 6.987 0 3.261 2.795 4.658 5.123 5.589-3.261-3.726-5.124-13.974-7.918-12.576M204.017 26.929c7.918 0 15.371-0.932 23.756 0.931 20.495 5.124 37.729 15.371 49.374 29.811l32.606 52.169c1.397 13.042 4.192 27.482 3.726 43.319 3.261 0 2.795-4.658 6.521-5.59-3.726 9.316-5.59 20.961-6.521 34.469-2.329-7.453 0-18.632 0.466-24.687-3.261 5.124-5.124 1.397-5.124-0.932 0.466-3.726-1.397-3.261-2.795-4.658-5.124-4.658-8.384-9.782-12.11-17.7 2.329-6.055 2.795-14.905-4.658-19.563-2.329-1.397-5.124-3.726-6.521-7.453-1.863-5.124-5.124-11.179-4.193-19.097 0.466-2.329-6.987 5.124-11.179 1.863-18.166-12.576-36.332-27.016-58.224-39.127-11.645 0-20.029-4.192-24.221-9.316-3.726-4.658-0.932-10.713 4.658-11.179 3.261 0 6.987-0.932 9.782 0.932 0.466-1.863 2.329-4.192 4.657-4.192M157.904 16.215l0.932 0.466c4.658 0.932 6.987 7.453 12.11 5.124 0 3.261 0.466 6.521-0.466 8.85-1.397 3.726-5.59 3.726-8.85 3.726-31.208-1.863-49.374 11.179-68.471 22.358-5.124 3.261-10.713 5.59-14.906 9.782-20.029 18.632-41.921 35.866-47.045 70.335l-4.192 38.195c-0.466 4.192-5.124 8.384-4.192 13.508l3.26 22.824c-3.261-3.261-5.124 0.932-4.192 2.795 0.466 1.397 2.329 6.055 5.124 1.863 3.726 6.987 7.453 20.495 12.576 26.55 15.837 18.632 36.332 35.4 53.101 52.169 4.192-0.932 7.453-0.932 8.384-3.727 1.397 2.795-1.397 5.59-3.726 6.056 7.453 4.658 15.837 8.85 27.016 9.781 14.44 0.932 27.948 3.261 40.524 6.522 6.521-1.863 13.042-2.795 20.029-3.261 2.329 0 3.726-3.726 6.521-4.658l0.466-4.658c2.795 4.192 2.329-1.397 0.466-4.192 3.261 2.795 4.192 5.124 5.589 6.987 0-1.397 3.726-6.521 3.727-0.466l0.931-6.055c1.397-0.932 1.863 5.124 3.261 0.931 1.397-4.192 4.192-0.932 6.987-2.329-0.932 1.863-0.466 5.59 2.794 3.261l3.727-3.261c2.329 5.59 6.055 3.261 7.918 2.329 20.495-13.042 40.99-28.413 60.553-43.784l-0.466 6.055 2.329-7.453c2.329 2.329 4.192 0.466 5.124-0.931 2.795-4.658 6.521-9.316 12.577-13.508-7.453 20.029-16.303 35.866-27.482 48.908l-4.658 5.59c0 3.261-0.932 7.453-4.658 7.918-1.863 0.466-5.59-0.932-8.384 1.863-1.397 1.863 3.261 5.59-0.466 2.795-3.261-2.329-6.521 0-10.248 0.932-2.795 0.932 1.863 3.726 2.795 5.589 0.932 1.863 1.863 3.726 1.398 6.056l-5.124-5.59c-6.055 3.261-9.782 9.316-14.906 13.974-2.329 1.863-1.397 5.124-1.397 7.918-3.261 0-6.987-0.932-8.85 0.932-1.397 1.863-0.932 4.658-0.932 7.453-4.658-0.466-5.124-7.453-9.315-6.056-4.192 0.932-8.85 1.397-12.577 3.727 2.795 5.59-4.658 2.329-3.726 3.26-6.987-4.192-13.042-7.453-20.495-4.658-15.837-5.124-35.4-2.795-49.84-0.931 0-2.329 0.466-4.658-0.466-5.124-0.932 2.329-3.726 1.397-3.26 1.397-8.85-6.055-17.7-9.782-27.016-14.905-8.384 0.932-16.303-3.261-18.632-5.59-6.521-6.055-13.974-2.795-20.029-4.192-13.042-3.261-17.7-16.769-19.098-26.084-0.932-4.658-4.658-6.521-6.055-6.056-6.055-19.563-15.371-37.263-22.824-55.429-1.863-4.658-1.397-9.316-1.397-14.44 2.329 0.932 4.658 0.466 4.192-2.794-2.329-15.371-7.918-27.016-13.974-38.195 3.261-15.837 3.726-34.469 11.179-48.443 6.521-12.576 18.632-19.098 27.016-29.811 2.795-3.726 2.795-8.85 5.59-12.11 9.316-9.316 18.632-19.098 28.879-27.482 4.658-3.726 10.247 0 17.234-1.397 2.329-8.384 11.645-15.837 20.495-13.508 3.726 0.932 11.179-8.85 13.508-9.782 3.726-1.397 1.863 3.726 1.863 6.987 8.85-6.987 20.961-10.713 32.14-14.906" fill="#ffffff" fill-rule="nonzero" stroke="none" stroke-width="1" stroke-linecap="butt" stroke-linejoin="miter" stroke-miterlimit="10" stroke-dasharray="" stroke-dashoffset="0" font-family="none" font-weight="none" font-size="none" text-anchor="none" style="mix-blend-mode: normal" data-fill-palette-color="tertiary"></path></g><g transform="matrix(1,0,0,1,64,149.13821102305909)"><svg viewBox="0 0 192 61.72357795388181" height="61.72357795388181" width="192"><g><svg viewBox="0 0 192 61.72357795388181" height="61.72357795388181" width="192"><g><svg viewBox="0 0 192 61.72357795388181" height="61.72357795388181" width="192"><g><svg viewBox="0 0 192 61.72357795388181" height="61.72357795388181" width="192"><g id="textblocktransform"><svg viewBox="0 0 192 61.72357795388181" height="61.72357795388181" width="192" id="textblock"><g><svg viewBox="0 0 192 61.72357795388181" height="61.72357795388181" width="192"><g transform="matrix(1,0,0,1,0,0)"><svg width="192" viewBox="2.25 -36.20320510864258 113.84955596923828 36.603206634521484" height="61.72357795388181" data-palette-color="url(#34bc9795-ccf0-4934-a202-5b7e321963d7)"></svg></g></svg></g></svg></g></svg></g><g></g></svg></g></svg></g></svg></g></svg></g><defs><linearGradient x1="0.054" x2="0.941" y1="0.5" y2="0.5" id="34bc9795-ccf0-4934-a202-5b7e321963d7"><stop stop-color="#9c7945" offset="0"></stop><stop stop-color="#faf3aa" offset="0.498"></stop><stop stop-color="#9c7945" offset="1"></stop></linearGradient><linearGradient x1="0.054" x2="0.941" y1="0.5" y2="0.5" id="9542d16d-91cc-4869-b757-01d4b4a28c5e"><stop stop-color="#9c7945" offset="0"></stop><stop stop-color="#faf3aa" offset="0.498"></stop><stop stop-color="#9c7945" offset="1"></stop></linearGradient></defs><mask id="f00cc2df-b015-4e9e-9b78-61f10a2282fc"><g id="SvgjsG1013"><svg viewBox="0 0 320 360" height="360" width="320"><g><svg></svg></g><g><svg viewBox="0 0 320 360" height="360" width="320"><g></g><g transform="matrix(1,0,0,1,64,149.13821102305909)"><svg viewBox="0 0 192 61.72357795388181" height="61.72357795388181" width="192"><g><svg viewBox="0 0 192 61.72357795388181" height="61.72357795388181" width="192"><g><svg viewBox="0 0 192 61.72357795388181" height="61.72357795388181" width="192"><g><svg viewBox="0 0 192 61.72357795388181" height="61.72357795388181" width="192"><g id="SvgjsG1012"><svg viewBox="0 0 192 61.72357795388181" height="61.72357795388181" width="192" id="SvgjsSvg1011"><g><svg viewBox="0 0 192 61.72357795388181" height="61.72357795388181" width="192"><g transform="matrix(1,0,0,1,0,0)"><svg width="192" viewBox="2.25 -36.20320510864258 113.84955596923828 36.603206634521484" height="61.72357795388181" data-palette-color="url(#34bc9795-ccf0-4934-a202-5b7e321963d7)"><path d="M20 0.4L20 0.4Q17.25 0.4 14.6-0.3 11.95-1 10-2.25L10-2.25Q7.8-3.65 6.03-6.2 4.25-8.75 3.25-11.78 2.25-14.8 2.25-17.6L2.25-17.6Q2.25-21.35 3.85-24.9 5.45-28.45 8.35-31.35L8.35-31.35Q10.55-33.55 13.3-34.75L13.3-34.75Q16.55-36.1 19.85-36.1L19.85-36.1Q22.7-36.1 25.55-35L25.55-35Q27.4-34.3 28.7-33.23 30-32.15 31.55-30.4L31.55-30.4 33.05-28.55Q33.65-27.8 33.65-27L33.65-27Q33.65-26 32.85-25.25 32.05-24.5 31-24.5L31-24.5Q29.95-24.5 29.15-25.45L29.15-25.45 27.3-27.7Q26.6-28.45 25.65-29.18 24.7-29.9 23.75-30.3L23.75-30.3Q21.6-31.2 19.45-31.05L19.45-31.05Q14.9-30.65 11.8-27.7L11.8-27.7Q7.25-23.3 7.25-17.6L7.25-17.6Q7.25-14.55 8.88-11.23 10.5-7.9 12.7-6.45L12.7-6.45Q14.05-5.6 15.95-5.1 17.85-4.6 19.85-4.6L19.85-4.6Q25.9-4.6 27.75-7.95L27.75-7.95Q28.1-8.55 28.6-10.25L28.6-10.25 29.1-11.85Q29.4-12.65 30.03-13.1 30.65-13.55 31.35-13.55L31.35-13.55Q32.35-13.55 33.15-12.85 33.95-12.15 33.95-11.05L33.95-11.05Q33.95-10.6 33.8-10.15L33.8-10.15 33.45-9.1Q32.6-6.5 32.15-5.55L32.15-5.55Q30.6-2.85 27.8-1.4 25 0.05 21.4 0.35L21.4 0.35Q20.95 0.4 20 0.4L20 0.4ZM60.05-2.4L60.05-2.4Q60-1.35 59.25-0.65 58.5 0.05 57.47 0.03 56.45 0 55.75-0.75 55.05-1.5 55.05-2.5L55.05-2.5Q55.05-2.55 55.35-7.2L55.35-7.2Q55.65-12.3 55.45-14.95L55.45-14.95Q55-21.2 50.85-21.5L50.85-21.5Q48.65-21.65 47.22-20.83 45.8-20 44.45-17.95L44.45-17.95Q44.35-17.8 44.05-17.25L44.05-17.25Q44.4-6.45 44.4-2.45L44.4-2.45Q44.4-1.4 43.67-0.68 42.95 0.05 41.9 0.05 40.85 0.05 40.12-0.68 39.4-1.4 39.4-2.45L39.4-2.45Q39.4-4.75 39-18L39-18Q38.7-27.95 38.9-33.8L38.9-33.8Q38.95-34.8 39.7-35.52 40.45-36.25 41.47-36.2 42.5-36.15 43.22-35.4 43.95-34.65 43.9-33.6L43.9-33.6Q43.85-32.25 43.85-23.15L43.85-23.15Q47.05-26.85 51.35-26.5L51.35-26.5Q59.65-25.8 60.45-15.35L60.45-15.35Q60.6-12.45 60.52-10.3 60.45-8.15 60.25-5.55 60.05-2.95 60.05-2.4L60.05-2.4ZM69.1 0L69.1 0Q68.1 0 67.35-0.68 66.6-1.35 66.6-2.5L66.6-2.5 66.5-12.7Q66.45-16.15 66.45-21.3L66.45-21.3 66.45-24.25Q66.45-25.4 67.15-26.05 67.85-26.7 68.85-26.7L68.85-26.7Q69.9-26.7 70.67-26.03 71.45-25.35 71.45-24.15L71.45-24.15 71.45-22.65Q72-23.85 73.5-24.7L73.5-24.7Q75.55-25.95 78-25.95L78-25.95Q79.85-25.95 80.85-25.35 81.85-24.75 81.85-23.2L81.85-23.2Q81.85-22.2 81.25-21.53 80.65-20.85 79.5-20.85L79.5-20.85Q75.3-20.85 73.7-19.7L73.7-19.7Q72.8-19.1 72.12-18.25 71.45-17.4 71.45-16.6L71.45-16.6 71.55-10.35 71.6-2.5Q71.6-1.35 70.85-0.68 70.1 0 69.1 0L69.1 0ZM84.54-2.4L84.54-2.4Q84.44-6.15 84.57-13.9 84.69-21.65 84.69-24.05L84.69-24.05Q84.69-25.1 85.42-25.83 86.14-26.55 87.19-26.55 88.24-26.55 88.97-25.83 89.69-25.1 89.69-24.05L89.69-24.05Q89.69-21.65 89.57-13.95 89.44-6.25 89.54-2.5L89.54-2.5Q89.54-1.45 88.84-0.7 88.14 0.05 87.09 0.05 86.04 0.05 85.29-0.65 84.54-1.35 84.54-2.4L84.54-2.4ZM89.19-35.2L89.19-35.2Q90.04-34.35 90.04-33.1 90.04-31.85 89.19-31 88.34-30.15 87.09-30.15 85.84-30.15 84.99-31 84.14-31.85 84.14-33.1 84.14-34.35 84.99-35.2 85.84-36.05 87.12-36.08 88.39-36.1 89.19-35.2L89.19-35.2ZM101.54 0L101.54 0Q97.84-0.65 96.19-3L96.19-3Q95.39-4.05 95.04-5.8L95.04-5.8 94.84-6.9Q94.74-7.4 94.64-7.7L94.64-7.7Q94.34-8.65 94.84-9.55 95.34-10.45 96.34-10.7 97.34-10.95 98.24-10.5 99.14-10.05 99.44-9.05L99.44-9.05Q99.59-8.5 99.74-7.8L99.74-7.8Q99.79-7.55 99.82-7.33 99.84-7.1 99.99-6.55L99.99-6.55Q100.14-5.9 100.69-5.45L100.69-5.45Q101.29-4.9 102.49-4.75L102.49-4.75Q104.49-4.35 106.79-4.85L106.79-4.85Q109.04-5.35 110.29-6.3L110.29-6.3Q111.19-7.1 111.04-7.95L111.04-7.95Q110.89-9.35 109.29-10.05L109.29-10.05Q108.29-10.5 104.09-11.25L104.09-11.25Q99.74-12.1 97.94-13.45L97.94-13.45Q94.64-15.9 95.79-20.75L95.79-20.75Q96.49-23.55 98.67-24.88 100.84-26.2 103.49-26.35L103.49-26.35Q105.74-26.45 108.07-25.83 110.39-25.2 112.04-24.1L112.04-24.1Q112.59-23.7 113.19-23.15 113.79-22.6 114.37-21.95 114.94-21.3 115.04-21.25L115.04-21.25Q115.79-20.5 115.79-19.53 115.79-18.55 115.07-17.82 114.34-17.1 113.32-17.1 112.29-17.1 111.54-17.8L111.54-17.8Q111.04-18.25 110.54-18.75L110.54-18.75 109.84-19.6Q109.54-19.85 109.14-20.1L109.14-20.1Q108.19-20.7 106.69-21.13 105.19-21.55 103.74-21.5L103.74-21.5Q101.09-21.35 100.69-19.65L100.69-19.65Q100.24-17.85 100.99-17.3L100.99-17.3Q101.89-16.65 105.04-16L105.04-16Q109.69-15.2 111.39-14.45L111.39-14.45Q115.49-12.6 116.04-8.5L116.04-8.5Q116.49-5.15 113.54-2.7L113.54-2.7Q111.29-0.85 107.84-0.15L107.84-0.15Q104.54 0.6 101.54 0L101.54 0Z" opacity="1" transform="matrix(1,0,0,1,0,0)" fill="white" class="undefined-text-0" id="SvgjsPath1010"></path></svg></g></svg></g></svg></g></svg></g><g></g></svg></g></svg></g></svg></g></svg></g><defs><mask></mask></defs></svg></g></mask><mask id="dd83c23e-1a73-479a-a891-f3d7fb86fa21"><g id="SvgjsG1022"><svg viewBox="0 0 320 360" height="360" width="320"><g><svg></svg></g><g><svg viewBox="0 0 320 360" height="360" width="320"><g><path xmlns="http://www.w3.org/2000/svg" d="M20.961 227.22l3.726 4.658-1.863-6.056c-0.466-2.795-3.726 0.466-1.863 1.398M25.153 224.425c1.397 2.329 2.795 4.658 2.795 6.987 0 3.261 2.795 4.658 5.123 5.589-3.261-3.726-5.124-13.974-7.918-12.576M204.017 26.929c7.918 0 15.371-0.932 23.756 0.931 20.495 5.124 37.729 15.371 49.374 29.811l32.606 52.169c1.397 13.042 4.192 27.482 3.726 43.319 3.261 0 2.795-4.658 6.521-5.59-3.726 9.316-5.59 20.961-6.521 34.469-2.329-7.453 0-18.632 0.466-24.687-3.261 5.124-5.124 1.397-5.124-0.932 0.466-3.726-1.397-3.261-2.795-4.658-5.124-4.658-8.384-9.782-12.11-17.7 2.329-6.055 2.795-14.905-4.658-19.563-2.329-1.397-5.124-3.726-6.521-7.453-1.863-5.124-5.124-11.179-4.193-19.097 0.466-2.329-6.987 5.124-11.179 1.863-18.166-12.576-36.332-27.016-58.224-39.127-11.645 0-20.029-4.192-24.221-9.316-3.726-4.658-0.932-10.713 4.658-11.179 3.261 0 6.987-0.932 9.782 0.932 0.466-1.863 2.329-4.192 4.657-4.192M157.904 16.215l0.932 0.466c4.658 0.932 6.987 7.453 12.11 5.124 0 3.261 0.466 6.521-0.466 8.85-1.397 3.726-5.59 3.726-8.85 3.726-31.208-1.863-49.374 11.179-68.471 22.358-5.124 3.261-10.713 5.59-14.906 9.782-20.029 18.632-41.921 35.866-47.045 70.335l-4.192 38.195c-0.466 4.192-5.124 8.384-4.192 13.508l3.26 22.824c-3.261-3.261-5.124 0.932-4.192 2.795 0.466 1.397 2.329 6.055 5.124 1.863 3.726 6.987 7.453 20.495 12.576 26.55 15.837 18.632 36.332 35.4 53.101 52.169 4.192-0.932 7.453-0.932 8.384-3.727 1.397 2.795-1.397 5.59-3.726 6.056 7.453 4.658 15.837 8.85 27.016 9.781 14.44 0.932 27.948 3.261 40.524 6.522 6.521-1.863 13.042-2.795 20.029-3.261 2.329 0 3.726-3.726 6.521-4.658l0.466-4.658c2.795 4.192 2.329-1.397 0.466-4.192 3.261 2.795 4.192 5.124 5.589 6.987 0-1.397 3.726-6.521 3.727-0.466l0.931-6.055c1.397-0.932 1.863 5.124 3.261 0.931 1.397-4.192 4.192-0.932 6.987-2.329-0.932 1.863-0.466 5.59 2.794 3.261l3.727-3.261c2.329 5.59 6.055 3.261 7.918 2.329 20.495-13.042 40.99-28.413 60.553-43.784l-0.466 6.055 2.329-7.453c2.329 2.329 4.192 0.466 5.124-0.931 2.795-4.658 6.521-9.316 12.577-13.508-7.453 20.029-16.303 35.866-27.482 48.908l-4.658 5.59c0 3.261-0.932 7.453-4.658 7.918-1.863 0.466-5.59-0.932-8.384 1.863-1.397 1.863 3.261 5.59-0.466 2.795-3.261-2.329-6.521 0-10.248 0.932-2.795 0.932 1.863 3.726 2.795 5.589 0.932 1.863 1.863 3.726 1.398 6.056l-5.124-5.59c-6.055 3.261-9.782 9.316-14.906 13.974-2.329 1.863-1.397 5.124-1.397 7.918-3.261 0-6.987-0.932-8.85 0.932-1.397 1.863-0.932 4.658-0.932 7.453-4.658-0.466-5.124-7.453-9.315-6.056-4.192 0.932-8.85 1.397-12.577 3.727 2.795 5.59-4.658 2.329-3.726 3.26-6.987-4.192-13.042-7.453-20.495-4.658-15.837-5.124-35.4-2.795-49.84-0.931 0-2.329 0.466-4.658-0.466-5.124-0.932 2.329-3.726 1.397-3.26 1.397-8.85-6.055-17.7-9.782-27.016-14.905-8.384 0.932-16.303-3.261-18.632-5.59-6.521-6.055-13.974-2.795-20.029-4.192-13.042-3.261-17.7-16.769-19.098-26.084-0.932-4.658-4.658-6.521-6.055-6.056-6.055-19.563-15.371-37.263-22.824-55.429-1.863-4.658-1.397-9.316-1.397-14.44 2.329 0.932 4.658 0.466 4.192-2.794-2.329-15.371-7.918-27.016-13.974-38.195 3.261-15.837 3.726-34.469 11.179-48.443 6.521-12.576 18.632-19.098 27.016-29.811 2.795-3.726 2.795-8.85 5.59-12.11 9.316-9.316 18.632-19.098 28.879-27.482 4.658-3.726 10.247 0 17.234-1.397 2.329-8.384 11.645-15.837 20.495-13.508 3.726 0.932 11.179-8.85 13.508-9.782 3.726-1.397 1.863 3.726 1.863 6.987 8.85-6.987 20.961-10.713 32.14-14.906" fill="white" fill-rule="nonzero" stroke="none" stroke-width="1" stroke-linecap="butt" stroke-linejoin="miter" stroke-miterlimit="10" stroke-dasharray="" stroke-dashoffset="0" font-family="none" font-weight="none" font-size="none" text-anchor="none" style="mix-blend-mode: normal"></path></g><g transform="matrix(1,0,0,1,64,149.13821102305909)"><svg viewBox="0 0 192 61.72357795388181" height="61.72357795388181" width="192"><g><svg viewBox="0 0 192 61.72357795388181" height="61.72357795388181" width="192"><g><svg viewBox="0 0 192 61.72357795388181" height="61.72357795388181" width="192"><g><svg viewBox="0 0 192 61.72357795388181" height="61.72357795388181" width="192"><g id="SvgjsG1021"><svg viewBox="0 0 192 61.72357795388181" height="61.72357795388181" width="192" id="SvgjsSvg1020"><g><svg viewBox="0 0 192 61.72357795388181" height="61.72357795388181" width="192"><g transform="matrix(1,0,0,1,0,0)"><svg width="192" viewBox="2.25 -36.20320510864258 113.84955596923828 36.603206634521484" height="61.72357795388181" data-palette-color="url(#34bc9795-ccf0-4934-a202-5b7e321963d7)"></svg></g></svg></g></svg></g></svg></g><g></g></svg></g></svg></g></svg></g></svg></g><defs><linearGradient x1="0.054" x2="0.941" y1="0.5" y2="0.5" id="SvgjsLinearGradient1019"><stop stop-color="#9c7945" offset="0"></stop><stop stop-color="#faf3aa" offset="0.498"></stop><stop stop-color="#9c7945" offset="1"></stop></linearGradient><mask></mask></defs><mask id="SvgjsMask1018"><g id="SvgjsG1017"><svg viewBox="0 0 320 360" height="360" width="320"><g><svg></svg></g><g><svg viewBox="0 0 320 360" height="360" width="320"><g></g><g transform="matrix(1,0,0,1,64,149.13821102305909)"><svg viewBox="0 0 192 61.72357795388181" height="61.72357795388181" width="192"><g><svg viewBox="0 0 192 61.72357795388181" height="61.72357795388181" width="192"><g><svg viewBox="0 0 192 61.72357795388181" height="61.72357795388181" width="192"><g><svg viewBox="0 0 192 61.72357795388181" height="61.72357795388181" width="192"><g id="SvgjsG1016"><svg viewBox="0 0 192 61.72357795388181" height="61.72357795388181" width="192" id="SvgjsSvg1015"><g><svg viewBox="0 0 192 61.72357795388181" height="61.72357795388181" width="192"><g transform="matrix(1,0,0,1,0,0)"><svg width="192" viewBox="2.25 -36.20320510864258 113.84955596923828 36.603206634521484" height="61.72357795388181" data-palette-color="url(#34bc9795-ccf0-4934-a202-5b7e321963d7)"></svg></g></svg></g></svg></g></svg></g><g></g></svg></g></svg></g></svg></g></svg></g><defs><mask></mask></defs></svg></g></mask></svg></g></mask></svg><rect width="320" height="360" fill="none" stroke="none" visibility="hidden"></rect></g></svg></g></svg>